# xmcd
#
# Track frame offsets: 
#        150
#        12731
#        28677
#        46665
#        59699
#        72419
#        88088
#        110526
#        120934
#        140851
#        153406
#
# Disc length: 2274 seconds
#
# Revision: 0
# Processed by: cddbd v1.5.2PL0 Copyright (c) Steve Scherf et al.
# Submitted via: ExactAudioCopy v0.99pb5
#
DISCID=9b08e00b
DTITLE=Steve Pride - Haint
DYEAR=1997
DGENRE=Country
TTITLE0=Mr. Bones
TTITLE1=Eva Peron
TTITLE2=Good-night Abilene
TTITLE3=Beggar's Will
TTITLE4=Carolina Line
TTITLE5=River Red
TTITLE6=Black Roses
TTITLE7=House of Love
TTITLE8=the Devil Said
TTITLE9=Here Comes The Man
TTITLE10=Cold China Rain
EXTD=
EXTT0=
EXTT1=
EXTT2=
EXTT3=
EXTT4=
EXTT5=
EXTT6=
EXTT7=
EXTT8=
EXTT9=
EXTT10=
PLAYORDER=
